# xmcd CD database file
#
# Track frame offsets:
#	150
#	11462
#	28747
#	39065
#	47485
#	58670
#	72720
#	90430
#	100447
#	113877
#	122752
#	135242
#	145505
#	157730
#	172117
#	183810
#	190990
#	203400
#
# Disc length: 2839 seconds
#
# Revision: 0
# Processed by: cddbd v1.5.2PL0 Copyright (c) Steve Scherf et al.
# Submitted via: CDex 1.51
#
DISCID=e40b1512
DTITLE=Sons of The Pioneers - Under Western Skies
DYEAR=2005
DGENRE=Country
TTITLE0=Hodie Brown (My Little Lady)
TTITLE1=My Pretty Quadroon
TTITLE2=The Preacher and the Bear
TTITLE3=Square Dance
TTITLE4=Black Sheep Blues
TTITLE5=The Yodeling Cowboy
TTITLE6=Cowboy Jack
TTITLE7=I Wish I'd Stayed in the Wagon Yard
TTITLE8=Dear Old Western Skies
TTITLE9=While I Rock Our Babies To Sleep
TTITLE10=That Silver Haired Daddy of Mine
TTITLE11=Cowboy's Night Herd Song
TTITLE12=Swiss Yodel
TTITLE13=T For Texas
TTITLE14=A Sandman Lullaby
TTITLE15=One More River to Cross
TTITLE16=I Still Do
TTITLE17=Whoopie-Ti-Yi-Yo
EXTD=YEAR: 2005
EXTT0=
EXTT1=
EXTT2=
EXTT3=
EXTT4=
EXTT5=
EXTT6=
EXTT7=
EXTT8=
EXTT9=
EXTT10=
EXTT11=
EXTT12=
EXTT13=
EXTT14=
EXTT15=
EXTT16=
EXTT17=
PLAYORDER=
